#!OML:ASF X:\für Bonn\!DataBase\2005_08_12_Daniel\c3d\Daniel.ASF
:FULLY-SPECIFIED
:DEGREES
1
root -1.16578 17.0358 -0.837665 52.0125 -87.7697 -62.9366
lowerback 18.353 -1.59644 4.53634
upperback -0.0752845 -1.45836 -2.38644
thorax -10.6089 -1.03491 -4.82055
lowerneck 4.14636 0.909274 -2.51246
upperneck 6.89894 0.863159 3.05544
head 1.42161 0.350631 1.37506
rclavicle 1.4561e-014 8.74653e-015
rhumerus 48.3716 1.7037 -92.6343
rradius 8.36427
rwrist 56.8632
rhand -18.2474 12.7876
rfingers 7.12502
rthumb 8.03159 -17.0398
lclavicle 1.4561e-014 8.74653e-015
lhumerus 53.096 -2.14543 81.1129
lradius 11.2565
lwrist -56.4912
lhand -13.8548 -2.0941
lfingers 7.12502
lthumb 12.2691 27.526
rfemur 5.84933 14.8922 24.6673
rtibia 24.6248
rfoot -29.8671 -18.7626
rtoes -12.4477
lfemur -3.61024 -13.6227 -15.5094
ltibia 38.5336
lfoot -28.3894 6.32047
ltoes -0.20187
2
root -1.14629 17.0235 -0.829141 50.8426 -87.7712 -62.0463
lowerback 19.0418 -1.63645 4.59857
upperback 0.0325167 -1.48117 -2.42297
thorax -10.8834 -1.05797 -4.88946
lowerneck 4.11418 0.889243 -2.46435
upperneck 6.66779 0.849982 3.04693
head 1.35415 0.348094 1.36222
rclavicle 5.51627e-015 7.95139e-015
rhumerus 48.6448 1.77677 -92.7466
rradius 8.32904
rwrist 57.0806
rhand -18.3641 12.649
rfingers 7.12502
rthumb 7.91896 -17.1827
lclavicle 5.51627e-015 7.95139e-015
lhumerus 53.1951 -1.69602 82.0004
lradius 11.2587
lwrist -57.2894
lhand -13.669 -2.25028
lfingers 7.12502
lthumb 12.4482 27.359
rfemur 5.43338 12.7072 23.8736
rtibia 25.2476
rfoot -28.624 -16.9942
rtoes -12.7425
lfemur -3.62564 -12.8214 -15.3442
ltibia 38.803
lfoot -28.0715 5.56286
ltoes -0.299287
3
root -1.12544 17.0066 -0.819914 49.6562 -87.7434 -61.14
lowerback 19.7635 -1.69034 4.68583
upperback 0.124334 -1.51299 -2.44747
thorax -11.1949 -1.08776 -4.95708
lowerneck 4.04486 0.869757 -2.46065
upperneck 6.49671 0.833023 3.07742
head 1.31221 0.342861 1.37041
rclavicle 6.65929e-015 -2.38542e-015
rhumerus 48.8472 1.85138 -92.8429
rradius 8.28904
rwrist 57.3003
rhand -18.5526 12.4876
rfingers 7.12502
rthumb 7.73699 -17.3508
lclavicle 6.65929e-015 -2.38542e-015
lhumerus 53.2653 -1.31326 82.7809
lradius 11.2079
lwrist -57.9564
lhand -13.5438 -2.39338
lfingers 7.12502
lthumb 12.5689 27.2085
rfemur 4.93514 10.5058 23.0952
rtibia 26.0589
rfoot -27.5462 -15.1609
rtoes -13.051
lfemur -3.72596 -11.958 -15.1271
ltibia 39.1873
lfoot -27.7919 4.72178
ltoes -0.454115
4
root -1.10323 16.9847 -0.810323 48.0677 -87.7342 -59.8566
lowerback 20.5003 -1.74166 4.77083
upperback 0.254078 -1.54595 -2.50447
thorax -11.4717 -1.11832 -5.05933
lowerneck 3.93009 0.843405 -2.39108
upperneck 6.30813 0.811062 3.10338
head 1.27272 0.337215 1.36594
rclavicle -8.94531e-016 3.18055e-015
rhumerus 49.0431 1.89516 -92.9721
rradius 8.28928
rwrist 57.4646
rhand -18.768 12.3387
rfingers 7.12502
rthumb 7.52909 -17.5073
lclavicle -8.94531e-016 3.18055e-015
lhumerus 53.384 -1.06539 83.3937
lradius 11.1232
lwrist -58.5158
lhand -13.451 -2.40531
lfingers 7.12502
lthumb 12.6584 27.1911
rfemur 4.37562 8.43223 22.3315
rtibia 27.0985
rfoot -26.6984 -13.3626
rtoes -13.4138
lfemur -3.87245 -11.1101 -14.933
ltibia 39.7058
lfoot -27.5776 3.82753
ltoes -0.524665
5
root -1.07913 16.9527 -0.800796 46.0852 -87.7471 -58.1987
lowerback 21.29 -1.7932 4.80672
upperback 0.372114 -1.58616 -2.54383
thorax -11.7886 -1.15049 -5.11126
lowerneck 3.81627 0.82413 -2.40086
upperneck 6.14185 0.795436 3.12925
head 1.23992 0.332693 1.37538
rclavicle 3.97569e-015 7.15625e-015
rhumerus 49.1922 1.96451 -93.0602
rradius 8.33275
rwrist 57.5021
rhand -18.8855 12.2145
rfingers 7.12502
rthumb 7.41569 -17.6355
lclavicle 3.97569e-015 7.15625e-015
lhumerus 53.4627 -0.732718 84.1107
lradius 11.0273
lwrist -59.229
lhand -13.328 -2.42245
lfingers 7.12502
lthumb 12.777 27.1666
rfemur 3.73812 6.4794 21.5676
rtibia 28.3786
rfoot -26.0719 -11.5821
rtoes -13.6249
lfemur -4.10124 -10.1713 -14.7405
ltibia 40.3842
lfoot -27.4107 2.83335
ltoes -0.509683
6
root -1.05363 16.9113 -0.791232 43.516 -87.7798 -55.9668
lowerback 22.0905 -1.84042 4.81177
upperback 0.510542 -1.63021 -2.59185
thorax -12.086 -1.18255 -5.15358
lowerneck 3.6888 0.806059 -2.41154
upperneck 5.94251 0.782657 3.16825
head 1.19898 0.330094 1.389
rclavicle 8.89561e-015 -7.15625e-015
rhumerus 49.3738 2.03335 -93.1459
rradius 8.36002
rwrist 57.45
rhand -18.9736 12.1026
rfingers 7.12502
rthumb 7.3306 -17.7504
lclavicle 8.89561e-015 -7.15625e-015
lhumerus 53.5545 -0.390394 84.847
lradius 10.9156
lwrist -60.0817
lhand -13.334 -2.42824
lfingers 7.12502
lthumb 12.7712 27.1611
rfemur 3.00615 4.64087 20.793
rtibia 29.902
rfoot -25.6357 -9.81821
rtoes -13.7906
lfemur -4.40499 -9.20428 -14.5598
ltibia 41.2197
lfoot -27.3118 1.77624
ltoes -0.51396
7
root -1.02755 16.8604 -0.780902 40.5904 -87.8248 -53.3828
lowerback 22.891 -1.89352 4.80768
upperback 0.660972 -1.68787 -2.65562
thorax -12.3692 -1.22079 -5.20373
lowerneck 3.49672 0.795083 -2.41465
upperneck 5.80123 0.778472 3.21988
head 1.18708 0.33236 1.40626
rclavicle 6.88292e-015 3.97569e-015
rhumerus 49.5573 2.10505 -93.2465
rradius 8.43759
rwrist 57.2723
rhand -18.9234 12.0369
rfingers 7.12502
rthumb 7.37905 -17.8144
lclavicle 6.88292e-015 3.97569e-015
lhumerus 53.6725 -0.0347052 85.5624
lradius 10.7894
lwrist -60.9378
lhand -13.3656 -2.47341
lfingers 7.12502
lthumb 12.7408 27.1179
rfemur 2.19089 2.89892 20.0117
rtibia 31.6198
rfoot -25.3254 -8.11269
rtoes -13.8725
lfemur -4.79637 -8.23028 -14.399
ltibia 42.21
lfoot -27.2806 0.733469
ltoes -0.507421
8
root -0.999933 16.8024 -0.770656 36.6208 -87.8816 -49.7658
lowerback 23.7085 -1.93753 4.76906
upperback 0.82457 -1.74431 -2.72161
thorax -12.6427 -1.25634 -5.23632
lowerneck 3.2874 0.771754 -2.41059
upperneck 5.64024 0.760879 3.23301
head 1.17237 0.32805 1.40996
rclavicle 1.05729e-014 2.14687e-014
rhumerus 49.7547 2.1534 -93.309
rradius 8.54893
rwrist 57.06
rhand -18.8408 12.0328
rfingers 7.12502
rthumb 7.45883 -17.8157
lclavicle 1.05729e-014 2.14687e-014
lhumerus 53.8023 0.308541 86.3066
lradius 10.6812
lwrist -61.9223
lhand -13.4312 -2.44724
lfingers 7.12502
lthumb 12.6775 27.148
rfemur 1.31688 1.31578 19.2263
rtibia 33.508
rfoot -25.1577 -6.48723
rtoes -13.9598
lfemur -5.25168 -7.25637 -14.2819
ltibia 43.3398
lfoot -27.2924 -0.286809
ltoes -0.508561
9
root -0.972393 16.7399 -0.761375 32.6559 -87.925 -46.1508
lowerback 24.5199 -1.98452 4.71781
upperback 0.98819 -1.80779 -2.77143
thorax -12.9098 -1.29352 -5.24007
lowerneck 3.08485 0.761815 -2.51165
upperneck 5.47498 0.756352 3.31253
head 1.15473 0.328756 1.45309
rclavicle 3.01904e-015 1.66979e-014
rhumerus 49.9579 2.23242 -93.3612
rradius 8.67306
rwrist 56.7853
rhand -18.6513 12.0274
rfingers 7.12502
rthumb 7.64172 -17.8146
lclavicle 3.01904e-015 1.66979e-014
lhumerus 53.933 0.622643 86.9389
lradius 10.5864
lwrist -62.8001
lhand -13.5571 -2.43093
lfingers 7.12502
lthumb 12.5561 27.1718
rfemur 0.402294 -0.159596 18.4727
rtibia 35.5046
rfoot -25.0867 -4.8955
rtoes -13.8658
lfemur -5.77726 -6.32223 -14.1598
ltibia 44.5908
lfoot -27.4057 -1.24653
ltoes -0.578695
10
root -0.943403 16.6666 -0.751878 28.9188 -87.94 -42.7835
lowerback 25.3569 -2.03843 4.71771
upperback 1.15891 -1.86954 -2.83983
thorax -13.1816 -1.33429 -5.29522
lowerneck 2.8774 0.739444 -2.54759
upperneck 5.3275 0.736461 3.37625
head 1.14413 0.322732 1.48004
rclavicle 7.72154e-015 1.27222e-014
rhumerus 50.2135 2.27124 -93.4356
rradius 8.76023
rwrist 56.5403
rhand -18.4686 12.0372
rfingers 7.12502
rthumb 7.81811 -17.7982
lclavicle 7.72154e-015 1.27222e-014
lhumerus 54.0751 0.918082 87.6252
lradius 10.5067
lwrist -63.7596
lhand -13.7212 -2.4283
lfingers 7.12502
lthumb 12.398 27.184
rfemur -0.532933 -1.53969 17.762
rtibia 37.6037
rfoot -25.0707 -3.3961
rtoes -13.8404
lfemur -6.34408 -5.37411 -14.0045
ltibia 45.9599
lfoot -27.5453 -2.23489
ltoes -0.632057
11
root -0.914072 16.5876 -0.742482 25.9072 -87.9488 -40.1463
lowerback 26.1879 -2.09508 4.72649
upperback 1.34111 -1.93138 -2.89062
thorax -13.4327 -1.37434 -5.33455
lowerneck 2.67073 0.734785 -2.64184
upperneck 5.1652 0.739112 3.46381
head 1.12804 0.327194 1.52474
rclavicle 5.32681e-016 1.66979e-014
rhumerus 50.5539 2.31531 -93.4739
rradius 8.76584
rwrist 56.3794
rhand -18.3422 12.0721
rfingers 7.12502
rthumb 7.94005 -17.7588
lclavicle 5.32681e-016 1.66979e-014
lhumerus 54.2392 1.2654 88.3363
lradius 10.4626
lwrist -64.802
lhand -13.8754 -2.45067
lfingers 7.12502
lthumb 12.2492 27.1706
rfemur -1.50284 -2.8066 17.1001
rtibia 39.7726
rfoot -25.0698 -1.99853
rtoes -13.8402
lfemur -6.96068 -4.4764 -13.8375
ltibia 47.4373
lfoot -27.7439 -3.14518
ltoes -0.645899
12
root -0.883741 16.5006 -0.733864 23.3145 -87.9204 -37.9285
lowerback 27.043 -2.15691 4.77483
upperback 1.51449 -1.98698 -2.93868
thorax -13.704 -1.41486 -5.39601
lowerneck 2.44299 0.712624 -2.74371
upperneck 5.04459 0.71654 3.57562
head 1.12956 0.319178 1.57915
rclavicle 2.27981e-015 -1.19271e-014
rhumerus 50.9384 2.30968 -93.4902
rradius 8.68166
rwrist 56.2765
rhand -18.2918 12.0663
rfingers 7.12502
rthumb 7.98868 -17.7628
lclavicle 2.27981e-015 -1.19271e-014
lhumerus 54.4503 1.57167 89.063
lradius 10.361
lwrist -65.8215
lhand -14.0587 -2.43362
lfingers 7.12502
lthumb 12.0725 27.1981
rfemur -2.49806 -3.97977 16.4976
rtibia 42.0214
rfoot -25.1167 -0.693264
rtoes -13.8088
lfemur -7.64303 -3.59271 -13.6289
ltibia 49.0165
lfoot -27.9866 -4.03139
ltoes -0.704025
13
root -0.853296 16.4065 -0.725091 21.4073 -87.9031 -36.3894
lowerback 27.9259 -2.22116 4.81062
upperback 1.34073 -2.05468 -3.15255
thorax -13.6738 -1.41206 -5.26218
lowerneck 2.24225 0.703389 -2.76436
upperneck 4.90249 0.715489 3.60452
head 1.1191 0.322242 1.59235
rclavicle 2.41026e-015 -3.97569e-015
rhumerus 51.3289 2.34022 -93.5105
rradius 8.56898
rwrist 56.2638
rhand -18.3052 12.0785
rfingers 7.12502
rthumb 7.97578 -17.751
lclavicle 2.41026e-015 -3.97569e-015
lhumerus 54.6454 1.81633 89.6534
lradius 10.3131
lwrist -66.5846
lhand -14.1587 -2.43194
lfingers 7.12502
lthumb 11.9761 27.2055
rfemur -3.53594 -5.05661 15.9212
rtibia 44.3235
rfoot -25.1037 0.595038
rtoes -13.7147
lfemur -8.3672 -2.73698 -13.4099
ltibia 50.6777
lfoot -28.2546 -4.91364
ltoes -0.743329
14
root -0.822721 16.3042 -0.71713 18.7672 -87.8625 -34.1135
lowerback 28.8133 -2.28545 4.82092
upperback 1.46632 -2.12011 -3.18472
thorax -13.9509 -1.45102 -5.25857
lowerneck 2.01233 0.689756 -2.85174
upperneck 4.7954 0.705868 3.67762
head 1.12498 0.320521 1.63203
rclavicle 1.14177e-014 1.43125e-014
rhumerus 51.7725 2.3689 -93.495
rradius 8.38428
rwrist 56.3399
rhand -18.3777 12.0898
rfingers 7.12502
rthumb 7.90579 -17.7423
lclavicle 1.14177e-014 1.43125e-014
lhumerus 54.8757 2.1245 90.3815
lradius 10.2338
lwrist -67.5643
lhand -14.2189 -2.43459
lfingers 7.12502
lthumb 11.9181 27.2062
rfemur -4.58328 -6.08982 15.3424
rtibia 46.6701
rfoot -25.0399 1.787
rtoes -13.5692
lfemur -9.13438 -1.93572 -13.2099
ltibia 52.4011
lfoot -28.5347 -5.73327
ltoes -0.77579
15
root -0.792068 16.1959 -0.70987 16.8098 -87.8282 -32.5143
lowerback 29.7107 -2.35113 4.86279
upperback 1.58241 -2.18039 -3.24094
thorax -14.2387 -1.49089 -5.29986
lowerneck 1.77417 0.677833 -2.83267
upperneck 4.7101 0.699364 3.72846
head 1.1391 0.32179 1.64607
rclavicle 1.2424e-015 0
rhumerus 52.1761 2.35775 -93.5141
rradius 8.27634
rwrist 56.4745
rhand -18.4818 12.0609
rfingers 7.12502
rthumb 7.80528 -17.775
lclavicle 1.2424e-015 0
lhumerus 55.0988 2.30163 90.9062
lradius 10.2009
lwrist -68.196
lhand -14.208 -2.44153
lfingers 7.12502
lthumb 11.9285 27.1986
rfemur -5.66075 -7.0061 14.8085
rtibia 49.0391
rfoot -24.9203 2.9278
rtoes -13.4058
lfemur -9.93339 -1.14063 -12.991
ltibia 54.1779
lfoot -28.8435 -6.48502
ltoes -0.958139
